<svg width="67" height="74" viewBox="0 0 67 74" fill="none" xmlns="http://www.w3.org/2000/svg">
<g clip-path="url(#clip0_7_231)">
<path d="M41.7598 18.8855C41.7667 18.7323 41.7704 18.578 41.7704 18.423C41.7704 14.2209 39.1871 10.6745 35.683 9.61393C36.4202 6.57805 38.932 4.33594 41.91 4.33594C42.994 4.33594 43.8729 3.36527 43.8729 2.16797C43.8729 0.970672 42.994 0 41.91 0C36.7909 0 32.5288 4.11813 31.6897 9.51175C27.9977 10.4263 25.2297 14.0733 25.2297 18.423C25.2297 18.578 25.2334 18.7323 25.2403 18.8855H41.7598Z" fill="#A63E2E"/>
<path d="M66.8507 59.3916C66.5468 58.5815 65.831 58.0533 65.0372 58.0533H1.96299C1.16907 58.0533 0.453266 58.5815 0.149541 59.3916C-0.154183 60.2017 0.0137092 61.1343 0.575096 61.7543L11.0874 73.3649C11.4555 73.7715 11.9548 74 12.4754 74H54.5249C55.0456 74 55.5447 73.7715 55.9128 73.3649L66.4251 61.7543C66.9865 61.1343 67.1544 60.2017 66.8507 59.3916Z" fill="#A63E2E"/>
<path d="M62.7951 34.832H54.5248C52.7088 34.832 51.2314 36.4638 51.2314 38.4693C51.2314 39.7789 50.9442 41.0155 50.4355 42.1067H62.7951V34.832Z" fill="#A63E2E"/>
<path d="M19.6944 38.4694V50.0801C19.6944 52.0857 21.1718 53.7175 22.9877 53.7175C24.8036 53.7175 26.281 52.0857 26.281 50.0801V38.4694C26.281 34.0729 29.5194 30.4961 33.5 30.4961C37.4806 30.4961 40.7192 34.0729 40.7192 38.4693C40.7192 40.4749 42.1966 42.1067 44.0125 42.1067C45.8284 42.1067 47.3058 40.4749 47.3058 38.4693C47.3058 34.0728 50.5443 30.4961 54.5249 30.4961H62.7659C62.4443 26.4258 59.3436 23.2214 55.5763 23.2214H11.4241C7.65674 23.2214 4.55603 26.4258 4.23438 30.4961H12.4754C16.4559 30.4961 19.6944 34.0729 19.6944 38.4694Z" fill="#A63E2E"/>
<path d="M30.2069 50.0801C30.2069 51.3897 29.9197 52.6263 29.411 53.7175H62.7952V46.4428H30.2069V50.0801Z" fill="#A63E2E"/>
<path d="M33.5 34.832C31.6841 34.832 30.2068 36.4638 30.2068 38.4693V42.1067H37.5892C37.0806 41.0155 36.7933 39.7789 36.7933 38.4693C36.7933 36.4638 35.3159 34.832 33.5 34.832Z" fill="#A63E2E"/>
<path d="M4.20496 46.4427V53.7174H16.5645C16.0558 52.6262 15.7686 51.3896 15.7686 50.08V46.4426H4.20496V46.4427Z" fill="#A63E2E"/>
<path d="M15.7686 38.4694C15.7686 36.4638 14.2912 34.832 12.4754 34.832H4.20508V42.1067H15.7686V38.4694Z" fill="#A63E2E"/>
</g>
<defs>
<clipPath id="clip0_7_231">
<rect width="67" height="74" fill="white"/>
</clipPath>
</defs>
</svg>
