<svg width="42" height="42" viewBox="0 0 42 42" fill="none" xmlns="http://www.w3.org/2000/svg">
<g clip-path="url(#clip0_13_59)">
<path d="M10.5 0C9.67157 0 9 0.671572 9 1.50003V4.5H12V1.50003C12 0.671572 11.3284 0 10.5 0Z" fill="#E4C5C0"/>
<path d="M31.5 0C30.6715 0 29.9999 0.671572 29.9999 1.50003V4.5H32.9999V1.50003C33 0.671572 32.3284 0 31.5 0Z" fill="#E4C5C0"/>
<path d="M37.5 4.5H33V10.5C33 11.3285 32.3284 12.0001 31.5 12.0001C30.6715 12.0001 30 11.3285 30 10.5V4.5H12V10.5C12 11.3285 11.3284 12.0001 10.4999 12.0001C9.67148 12.0001 8.99991 11.3285 8.99991 10.5V4.5H4.5C2.01472 4.5 0 6.51472 0 9V37.5C0 39.9853 2.01472 42 4.5 42H37.5C39.9853 42 42 39.9853 42 37.5V9C42 6.51472 39.9853 4.5 37.5 4.5ZM38.9999 37.5C38.9999 38.3285 38.3284 39 37.4999 39H4.5C3.67154 39 2.99997 38.3285 2.99997 37.5V18H38.9999V37.5Z" fill="#E4C5C0"/>
<path d="M31.0612 21.4402C30.4755 20.854 29.5256 20.8538 28.9395 21.4394L18 32.3789L13.0604 27.4394C12.4743 26.8537 11.5244 26.854 10.9387 27.4402C10.353 28.0263 10.3533 28.9763 10.9395 29.562L16.9395 35.562C17.5253 36.1476 18.4748 36.1476 19.0605 35.562L31.0605 23.5619C31.6466 22.9762 31.6469 22.0263 31.0612 21.4402Z" fill="#E4C5C0"/>
</g>
<defs>
<clipPath id="clip0_13_59">
<rect width="42" height="42" fill="white"/>
</clipPath>
</defs>
</svg>
