<svg width="96" height="89" viewBox="0 0 96 89" fill="none" xmlns="http://www.w3.org/2000/svg">
<path d="M3.36847 54.9011V17.0348C3.36847 14.9307 5.20831 13.2249 7.47812 13.2249H48.3017C50.5713 13.2249 52.4111 14.9307 52.4111 17.0348V54.9013C52.4111 55.6027 51.798 56.1713 51.0413 56.1713H4.73835C3.98165 56.1713 3.36847 55.6027 3.36847 54.9011ZM36.3347 67.8733C36.3347 72.2375 32.5184 75.7754 27.8111 75.7754C23.1038 75.7754 19.2875 72.2375 19.2875 67.8733C19.2875 63.509 23.1038 59.9712 27.8111 59.9712C32.5184 59.9712 36.3347 63.509 36.3347 67.8733ZM32.0728 67.8733C32.0728 65.6912 30.1647 63.9223 27.811 63.9223C25.4573 63.9223 23.549 65.6912 23.549 67.8733C23.549 70.0554 25.4573 71.8245 27.811 71.8245C30.1647 71.8245 32.0728 70.0554 32.0728 67.8733ZM20.4698 59.9711H1.36988C0.613333 59.9711 0 60.5397 0 61.2411V65.0941C0 65.7955 0.613333 66.3641 1.36988 66.3641H16.6794C17.0791 63.8215 18.4634 61.5756 20.4698 59.9711ZM80.9314 67.8733C80.9314 72.2375 77.1151 75.7754 72.4078 75.7754C67.7004 75.7754 63.8842 72.2375 63.8842 67.8733C63.8842 63.509 67.7004 59.9712 72.4078 59.9712C77.1151 59.9711 80.9314 63.509 80.9314 67.8733ZM76.6698 67.8733C76.6698 65.6912 74.7616 63.9223 72.4078 63.9223C70.054 63.9223 68.146 65.6912 68.146 67.8733C68.146 70.0554 70.0541 71.8245 72.4078 71.8245C74.7616 71.8245 76.6698 70.0554 76.6698 67.8733ZM96 61.2411V65.0941C96 65.7955 95.3867 66.3641 94.6301 66.3641H83.5393C82.746 61.3203 78.0638 57.4311 72.4082 57.4311C66.7514 57.4311 62.069 61.3205 61.2758 66.3641H38.9429C38.5431 63.8216 37.1589 61.5756 35.1525 59.9711H56.328V23.6453C56.328 22.2425 57.5547 21.1053 59.0678 21.1053H72.0003C75.6417 21.1053 79.0452 22.7822 81.0827 25.58L89.4199 37.028C90.6428 38.7072 91.2963 40.687 91.2963 42.7132V59.9711H94.6301C95.3867 59.9711 96 60.5397 96 61.2411ZM82.1032 37.3212L75.4364 28.5385C75.1798 28.2006 74.7619 27.9994 74.3161 27.9994H63.9169C63.1605 27.9994 62.547 28.568 62.547 29.2694V38.0521C62.547 38.7536 63.1603 39.3221 63.9169 39.3221H80.9832C82.0929 39.3221 82.742 38.1626 82.1032 37.3212Z" fill="#A63E2E"/>
</svg>
