<svg width="85" height="77" viewBox="0 0 85 77" fill="none" xmlns="http://www.w3.org/2000/svg">
<path d="M2.9825 47.4987V14.7379C2.9825 12.9175 4.61153 11.4417 6.62125 11.4417H42.7671C44.7767 11.4417 46.4057 12.9175 46.4057 14.7379V47.4988C46.4057 48.1056 45.8628 48.5976 45.1928 48.5976H4.19542C3.52542 48.5976 2.9825 48.1056 2.9825 47.4987ZM32.1714 58.7218C32.1714 62.4976 28.7924 65.5584 24.6244 65.5584C20.4565 65.5584 17.0775 62.4976 17.0775 58.7218C17.0775 54.9459 20.4565 51.8851 24.6244 51.8851C28.7924 51.8851 32.1714 54.9459 32.1714 58.7218ZM28.3978 58.7218C28.3978 56.8339 26.7083 55.3035 24.6243 55.3035C22.5403 55.3035 20.8507 56.8339 20.8507 58.7218C20.8507 60.6097 22.5403 62.1402 24.6243 62.1402C26.7083 62.1402 28.3978 60.6097 28.3978 58.7218ZM18.1243 51.885H1.21292C0.543056 51.885 0 52.377 0 52.9838V56.3173C0 56.9241 0.543056 57.4161 1.21292 57.4161H14.7682C15.1221 55.2163 16.3478 53.2732 18.1243 51.885ZM71.6581 58.7218C71.6581 62.4976 68.279 65.5584 64.1111 65.5584C59.9431 65.5584 56.5642 62.4976 56.5642 58.7218C56.5642 54.9459 59.9431 51.8851 64.1111 51.8851C68.279 51.885 71.6581 54.9459 71.6581 58.7218ZM67.8847 58.7218C67.8847 56.8339 66.1951 55.3035 64.1111 55.3035C62.0269 55.3035 60.3376 56.8339 60.3376 58.7218C60.3376 60.6097 62.0271 62.1402 64.1111 62.1402C66.1951 62.1402 67.8847 60.6097 67.8847 58.7218ZM85 52.9838V56.3173C85 56.9241 84.457 57.4161 83.7871 57.4161H73.9671C73.2647 53.0524 69.119 49.6875 64.1114 49.6875C59.1028 49.6875 54.9569 53.0525 54.2546 57.4161H34.4807C34.1267 55.2164 32.9011 53.2732 31.1246 51.885H49.8738V20.4571C49.8738 19.2434 50.9599 18.2595 52.2996 18.2595H63.7503C66.9744 18.2595 69.9879 19.7103 71.7919 22.1309L79.1739 32.0354C80.2567 33.4882 80.8353 35.2011 80.8353 36.9541V51.885H83.7871C84.457 51.885 85 52.377 85 52.9838ZM72.6956 32.289L66.7926 24.6906C66.5654 24.3982 66.1954 24.2242 65.8007 24.2242H56.5931C55.9233 24.2242 55.3801 24.7161 55.3801 25.3229V32.9214C55.3801 33.5283 55.9232 34.0201 56.5931 34.0201H71.7039C72.6864 34.0201 73.2611 33.017 72.6956 32.289Z" fill="#A63E2E"/>
</svg>
