<svg width="45" height="46" viewBox="0 0 45 46" fill="none" xmlns="http://www.w3.org/2000/svg">
<g clip-path="url(#clip0_13_90)">
<path d="M9.31641 35.1289C14.4907 35.1289 18.5449 32.1691 18.5449 28.3906V27.043H15.5848L11.5785 12.7106C13.0371 12.444 14.2201 12.1495 15.298 11.8779C17.1199 11.42 18.7809 11.0332 21.1816 10.9204V38.5405L10.2331 46H34.7643L23.8184 38.5405V10.9204C26.2192 11.0331 27.8801 11.42 29.702 11.8779C30.7799 12.1495 31.9629 12.444 33.4215 12.7106L29.4152 27.043H26.4551V28.3906C26.4551 32.1691 30.5093 35.1289 35.6836 35.1289C40.8579 35.1289 45 32.1691 45 28.3906V27.043H41.952L38.1125 13.3077C39.9895 13.4633 42.2723 13.5664 45 13.5664V10.8711C37.0924 10.8711 33.7086 8.38242 30.8002 6.18718C28.7655 4.65031 26.8283 3.1015 23.8184 2.76782V0H21.1816V2.76782C18.1717 3.10141 16.2345 4.65031 14.1998 6.18718C11.2914 8.38242 7.90761 10.8711 0 10.8711V13.5664C2.72698 13.5664 5.00968 13.4634 6.88649 13.3078L3.04805 27.043H0V28.3906C0 32.1691 4.14211 35.1289 9.31641 35.1289ZM39.2088 27.043H32.1583L35.6833 14.4319L39.2088 27.043ZM9.31597 14.4299L12.8416 27.043H5.79103L9.31597 14.4299Z" fill="#E4C5C0"/>
</g>
<defs>
<clipPath id="clip0_13_90">
<rect width="45" height="46" fill="white"/>
</clipPath>
</defs>
</svg>
