<svg width="88" height="72" viewBox="0 0 88 72" fill="none" xmlns="http://www.w3.org/2000/svg">
<g clip-path="url(#clip0_13_228)">
<path d="M74.0001 58.9092H14.0156C12.9122 58.9092 12.0176 59.6411 12.0156 60.5439L12.0077 65.3155C12.0058 67.1005 12.8533 68.7785 14.3944 70.0409C15.9373 71.3049 17.9861 72 20.1679 72H67.8398C72.3398 72 76 69.0053 76 65.3235V60.5454C76 59.6411 75.1056 58.9092 74.0001 58.9092Z" fill="#A63E2E"/>
<path d="M66 6.54551C64.7755 6.54551 63.5175 6.64615 62.1855 6.84911C57.6094 2.48323 51.0508 0 44.0001 0C30.7658 0 20.0001 8.8083 20.0001 19.6364C20.0001 20.5392 19.1036 21.2728 18 21.2728C16.8966 21.2728 15.9999 20.5393 15.9999 19.6364C15.9999 16.0935 16.9961 12.6658 18.961 9.44909C19.3106 8.87702 19.2206 8.19144 18.7324 7.69286C18.2441 7.1975 17.4452 6.9769 16.6875 7.12877C6.86138 9.13429 0 16.2965 0 24.5455C0 31.3466 4.6875 37.5293 12.0469 40.5862L12.0253 53.9984C12.0253 54.4314 12.2344 54.8485 12.6094 55.1569C12.9863 55.4637 13.4942 55.6363 14.0254 55.6363H74.0001C75.1056 55.6363 76.0002 54.9044 76.0002 53.9999V40.5622C83.3322 37.4972 88.0002 31.324 88.0002 24.5453C88 14.6202 78.1309 6.54551 66 6.54551ZM29.2695 45.4475C28.8964 45.6968 28.4473 45.8183 28.002 45.8183C27.424 45.8183 26.8496 45.6138 26.4533 45.2206C25.7931 44.5606 20.0001 38.6608 20.0001 34.3637C20.0001 33.4592 20.8946 32.7272 22.0001 32.7272C23.1056 32.7272 24.0002 33.4592 24.0002 34.3637C24.0002 36.732 27.4026 41.0051 29.547 43.1431C30.246 43.8431 30.123 44.8737 29.2695 45.4475ZM46 44.1819C46 45.0863 45.1054 45.8183 43.9999 45.8183C42.8944 45.8183 42 45.0863 42 44.1819V34.3637C42 33.4592 42.8946 32.7272 44.0001 32.7272C45.1056 32.7272 46.0002 33.4592 46.0002 34.3637V44.1819H46ZM61.5469 45.2206C61.1504 45.6138 60.5781 45.8183 60 45.8183C59.5529 45.8183 59.1036 45.6968 58.7325 45.4475C57.879 44.8737 57.754 43.8431 58.4532 43.1448C60.5978 41.0018 64 36.724 64 34.3637C64 33.4592 64.8945 32.7272 66 32.7272C67.1055 32.7272 68.0001 33.4592 68.0001 34.3637C68.0001 38.6607 62.2071 44.5606 61.5469 45.2206Z" fill="#A63E2E"/>
</g>
<defs>
<clipPath id="clip0_13_228">
<rect width="88" height="72" fill="white"/>
</clipPath>
</defs>
</svg>
