<svg width="42" height="44" viewBox="0 0 42 44" fill="none" xmlns="http://www.w3.org/2000/svg">
<path fill-rule="evenodd" clip-rule="evenodd" d="M3.74998 13.357H38.2499C40.3209 13.357 42 11.5981 42 9.42849C42 7.25886 40.321 5.49994 38.2499 5.49994H3.74998C1.67897 5.50011 0 7.25886 0 9.42866C0 11.5983 1.67897 13.357 3.74998 13.357ZM38.2499 18.0714H3.74998C1.67897 18.0714 0 19.8303 0 21.9999C0 24.1697 1.67897 25.9285 3.74998 25.9285H38.2499C40.3209 25.9285 42 24.1697 42 21.9999C42 19.8303 40.3209 18.0714 38.2499 18.0714ZM38.2499 30.6428H3.74998C1.67897 30.6428 0 32.4015 0 34.5713C0 36.741 1.67897 38.4999 3.74998 38.4999H38.2499C40.3209 38.4999 42 36.741 42 34.5713C42 32.4015 40.3209 30.6428 38.2499 30.6428Z" fill="#45251C"/>
</svg>
