<svg width="52" height="45" viewBox="0 0 52 45" fill="none" xmlns="http://www.w3.org/2000/svg">
<g filter="url(#filter0_d_11_10)">
<path d="M44.1328 5.04077H18.1797C16.0467 5.04077 14.3125 6.66926 14.3125 8.6704C14.3125 10.6723 16.0467 12.3 18.1797 12.3H44.1328C46.2649 12.3 48 10.6723 48 8.6704C48 6.66926 46.2649 5.04077 44.1328 5.04077Z" fill="#A63E2E"/>
<path d="M44.1328 17.1394H18.1797C16.0467 17.1394 14.3125 18.7679 14.3125 20.769C14.3125 22.771 16.0467 24.3987 18.1797 24.3987H44.1328C46.2649 24.3987 48 22.771 48 20.769C48 18.7679 46.2649 17.1394 44.1328 17.1394Z" fill="#A63E2E"/>
<path d="M44.1328 29.2383H18.1797C16.0467 29.2383 14.3125 30.8668 14.3125 32.8679C14.3125 34.8698 16.0467 36.4975 18.1797 36.4975H44.1328C46.2649 36.4975 48 34.8698 48 32.8679C48 30.8668 46.2649 29.2383 44.1328 29.2383Z" fill="#A63E2E"/>
<path d="M7.86719 5.04077C5.73422 5.04077 4 6.66926 4 8.6704C4 10.6723 5.73422 12.3 7.86719 12.3C9.9993 12.3 11.7344 10.6723 11.7344 8.6704C11.7344 6.66926 9.9993 5.04077 7.86719 5.04077Z" fill="#A63E2E"/>
<path d="M7.86719 17.1394C5.73422 17.1394 4 18.7679 4 20.769C4 22.771 5.73422 24.3987 7.86719 24.3987C9.9993 24.3987 11.7344 22.771 11.7344 20.769C11.7344 18.7679 9.9993 17.1394 7.86719 17.1394Z" fill="#A63E2E"/>
<path d="M7.86719 29.2383C5.73422 29.2383 4 30.8668 4 32.8679C4 34.8698 5.73422 36.4975 7.86719 36.4975C9.9993 36.4975 11.7344 34.8698 11.7344 32.8679C11.7344 30.8668 9.9993 29.2383 7.86719 29.2383Z" fill="#A63E2E"/>
</g>
<defs>
<filter id="filter0_d_11_10" x="0" y="0.120605" width="52" height="49.2971" filterUnits="userSpaceOnUse" color-interpolation-filters="sRGB">
<feFlood flood-opacity="0" result="BackgroundImageFix"/>
<feColorMatrix in="SourceAlpha" type="matrix" values="0 0 0 0 0 0 0 0 0 0 0 0 0 0 0 0 0 0 127 0" result="hardAlpha"/>
<feOffset dy="4"/>
<feGaussianBlur stdDeviation="2"/>
<feComposite in2="hardAlpha" operator="out"/>
<feColorMatrix type="matrix" values="0 0 0 0 0 0 0 0 0 0 0 0 0 0 0 0 0 0 0.25 0"/>
<feBlend mode="normal" in2="BackgroundImageFix" result="effect1_dropShadow_11_10"/>
<feBlend mode="normal" in="SourceGraphic" in2="effect1_dropShadow_11_10" result="shape"/>
</filter>
</defs>
</svg>
