<svg width="90" height="86" viewBox="0 0 90 86" fill="none" xmlns="http://www.w3.org/2000/svg">
<g clip-path="url(#clip0_13_180)">
<path fill-rule="evenodd" clip-rule="evenodd" d="M16.4214 18.2576L29.9259 20.1263L34.4171 35.1344L18.4905 34.7725L13.1645 22.339L9.78246 20.0165C8.47696 20.6797 6.93337 20.9373 5.37327 20.6465C1.78041 19.9767 -0.581615 16.6502 0.124903 13.2419C0.831245 9.83475 4.33923 7.59465 7.93315 8.26481C11.526 8.93481 13.8882 12.2613 13.1813 15.6695C13.1595 15.7749 13.135 15.8791 13.1077 15.9822L16.4214 18.2576ZM68.7214 69.2827C72.1535 69.2827 74.9358 71.9212 74.9358 75.1759C74.9358 78.4306 72.1535 81.0691 68.7214 81.0691C65.2894 81.0691 62.507 78.4306 62.507 75.1759C62.507 71.9212 65.2894 69.2827 68.7214 69.2827ZM36.6688 69.2827C40.1009 69.2827 42.8832 71.9212 42.8832 75.1759C42.8832 78.4306 40.1009 81.0691 36.6688 81.0691C33.2367 81.0691 30.4544 78.4306 30.4544 75.1759C30.4546 71.9212 33.2367 69.2827 36.6688 69.2827ZM70.9241 41.7198C60.4124 41.7198 51.8899 33.6378 51.8899 23.6695C51.8899 13.7011 60.4124 5.61914 70.9241 5.61914C76.147 5.61914 80.9842 7.64713 84.3876 10.9107L70.2915 24.2781L66.7981 20.9653C65.743 19.9647 64.0325 19.9647 62.9774 20.9653C61.9223 21.9659 61.9223 23.588 62.9774 24.5886L68.3811 29.7129C69.4362 30.7135 71.1467 30.7135 72.2018 29.7129L87.656 15.0576C91.693 22.0959 90.3222 30.8008 84.3831 36.4329C80.9385 39.6993 76.18 41.7198 70.9241 41.7198ZM32.2867 57.6356L40.8336 56.5752L35.9561 40.2768L20.6998 39.9301L27.1086 54.8908C26.6426 55.3964 26.2459 55.9717 25.928 56.6097C23.5075 61.469 27.3045 66.9816 32.9377 66.9816H75.2779C76.7702 66.9816 77.9798 65.8344 77.9798 64.4194C77.9798 63.0043 76.77 61.8572 75.2779 61.8572H32.9375C32.0737 61.8572 31.3821 61.507 30.9276 60.8202C30.0822 59.543 30.871 57.9494 32.2867 57.6356ZM35.7739 20.9356L46.5219 22.4229C46.2573 27.0486 47.479 31.5768 49.9146 35.4865L40.0615 35.2626L35.7739 20.9356ZM75.8636 46.3613C72.7226 49.9199 68.396 52.5384 63.3603 53.6633L61.8857 45.1879C66.3116 46.8653 71.1508 47.2926 75.8636 46.3613ZM58.0334 54.4409L55.8528 41.9069C55.3319 41.5213 54.8293 41.1168 54.3461 40.6945L41.6004 40.4049L46.2388 55.9044L58.0334 54.4409Z" fill="#A63E2E"/>
</g>
<defs>
<clipPath id="clip0_13_180">
<rect width="89.962" height="85.312" fill="white" transform="translate(0 0.687988)"/>
</clipPath>
</defs>
</svg>
