<svg width="90" height="86" viewBox="0 0 90 86" fill="none" xmlns="http://www.w3.org/2000/svg">
<g clip-path="url(#clip0_13_195)">
<path d="M86.2617 69.4928V80H13.7382V69.4905C13.7382 64.5288 18.07 58.4206 23.3617 55.9386L35.1368 50.4141L43.3108 67.2349L47.496 56.0296C48.3212 56.1837 49.1393 56.3892 50 56.3892C50.8606 56.3892 51.6764 56.1837 52.504 56.0296L56.4763 66.6839L64.4895 50.2273L76.6454 55.9362C81.93 58.4183 86.2617 64.5264 86.2617 69.4928ZM24.4352 32.6663V25.0778C24.4352 23.7912 25.1138 22.6635 26.1376 22.0144C27.5113 10.2043 37.6834 1 50.0047 1C62.326 1 72.5004 10.2043 73.8765 22.0144C74.898 22.6635 75.5766 23.7912 75.5766 25.0778V32.6663C75.5766 34.6814 73.9238 36.3158 71.8809 36.3158C69.838 36.3158 68.1852 34.6814 68.1852 32.6663V31.0716C66.1849 41.0067 58.8195 50.2297 50.0071 50.2297C41.1946 50.2297 33.8293 41.0067 31.8289 31.0716V32.6663C31.8289 34.3008 30.7294 35.669 29.228 36.1337C30.6987 41.0767 33.9617 45.3473 38.4684 48.1492C39.3007 47.8784 40.3505 47.9297 41.3696 48.4528C43.0058 49.2933 43.8405 50.9278 43.221 52.0953C42.6039 53.2627 40.7785 53.5242 39.1328 52.6813C37.9316 52.0626 37.1703 51.0235 37.0899 50.0522C31.9282 46.7926 28.268 41.8029 26.7571 36.0473C25.3999 35.5103 24.4352 34.2027 24.4352 32.6663ZM28.6558 21.1621C28.7669 21.1691 28.8733 21.1715 28.9797 21.2111C29.2469 21.3092 29.4408 21.4983 29.5755 21.7202C30.3771 22.0564 31.0155 22.6705 31.408 23.4317C32.498 13.3424 40.3954 8.00479 50 8.00479C59.6045 8.00479 67.5019 13.3424 68.5919 23.4317C69.1334 22.3833 70.1619 21.6338 71.3938 21.4773C69.7954 11.22 60.8246 3.33259 50 3.33259C39.2865 3.33493 30.3866 11.0612 28.6558 21.1621Z" fill="#A63E2E"/>
</g>
<defs>
<clipPath id="clip0_13_195">
<rect width="89.962" height="85.312" fill="white" transform="translate(0 0.687988)"/>
</clipPath>
</defs>
</svg>
