<svg width="78" height="78" viewBox="0 0 78 78" fill="none" xmlns="http://www.w3.org/2000/svg">
<g clip-path="url(#clip0_11_73)">
<path d="M28.6351 35.6355C30.4358 35.6355 31.8956 34.1757 31.8956 32.375C31.8956 30.5743 30.4358 29.1146 28.6351 29.1146C26.8344 29.1146 25.3746 30.5743 25.3746 32.375C25.3746 34.1757 26.8344 35.6355 28.6351 35.6355Z" fill="#A63E2E"/>
<path d="M49.3487 48.8692C51.1494 48.8692 52.6092 47.4095 52.6092 45.6087C52.6092 43.808 51.1494 42.3483 49.3487 42.3483C47.548 42.3483 46.0883 43.808 46.0883 45.6087C46.0883 47.4095 47.548 48.8692 49.3487 48.8692Z" fill="#A63E2E"/>
<path d="M76.2317 43.3073L75.0489 41.693C73.7703 39.9349 73.7384 37.5535 75.001 35.7634L76.1518 34.1332C77.9099 31.6399 77.0947 28.1716 74.3937 26.7172L72.6356 25.7742C70.7176 24.7513 69.6628 22.6096 70.0304 20.452L70.366 18.4861C70.8775 15.4813 68.6239 12.7003 65.5712 12.5725L63.5734 12.4926C61.3997 12.3967 59.5137 10.9263 58.9064 8.83252L58.347 6.9146C57.4999 3.97377 54.2714 2.45542 51.4585 3.6701L49.6204 4.45326C47.6226 5.31632 45.2891 4.80488 43.8347 3.17464L42.5081 1.68824C40.4783 -0.581302 36.9142 -0.565319 34.9004 1.75218L33.5898 3.25455C32.1513 4.90077 29.8338 5.44418 27.82 4.61308L25.966 3.84591C23.1371 2.67917 19.9405 4.26146 19.1254 7.20228L18.598 9.13619C18.0226 11.2459 16.1686 12.7483 13.995 12.8602L11.9971 12.972C8.94441 13.1479 6.73879 15.9608 7.29819 18.9656L7.66579 20.9314C8.06536 23.0731 7.04247 25.2308 5.14052 26.2857L3.39841 27.2606C0.72929 28.747 -0.0378802 32.2312 1.76817 34.6926L2.95089 36.3068C4.22951 38.0649 4.26147 40.4463 2.99884 42.2364L1.84808 43.8666C0.0899816 46.36 0.9051 49.8282 3.60618 51.2826L5.36428 52.2256C7.28221 53.2485 8.33707 55.3902 7.96946 57.5479L7.63383 59.5137C7.12238 62.5185 9.37594 65.2995 12.4286 65.4273L14.4265 65.5073C16.6001 65.6032 18.4861 67.0736 19.0934 69.1673L19.6528 71.0852C20.4999 74.026 23.7284 75.5444 26.5414 74.3297L28.3794 73.5466C30.3772 72.6835 32.7107 73.1949 34.1651 74.8252L35.4917 76.3116C37.5375 78.5811 41.1016 78.5651 43.0995 76.2476L44.4101 74.7453C45.8485 73.0991 48.166 72.5556 50.1798 73.3867L52.0338 74.1539C54.8628 75.3206 58.0593 73.7384 58.8744 70.7975L59.4019 68.8636C59.9772 66.7539 61.8312 65.2515 64.0049 65.1396L66.0027 65.0278C69.0554 64.852 71.261 62.039 70.7017 59.0343L70.334 57.0684C69.9345 54.9267 70.9574 52.769 72.8593 51.7142L74.6014 50.7392C77.2705 49.2688 78.0377 45.7846 76.2317 43.3073ZM20.7556 32.3751C20.7556 28.0278 24.2718 24.5116 28.6191 24.5116C32.9664 24.5116 36.4826 28.0278 36.4826 32.3751C36.4826 36.7224 32.9664 40.2386 28.6191 40.2386C24.2718 40.2386 20.7556 36.7064 20.7556 32.3751ZM30.1375 52.6572C29.4662 53.4723 28.2515 53.5841 27.4364 52.9129C26.6213 52.2416 26.5094 51.0269 27.1807 50.2118L47.8144 25.3587C48.4857 24.5435 49.7003 24.4317 50.5155 25.1029C51.3306 25.7742 51.4425 26.9889 50.7712 27.804L30.1375 52.6572ZM49.3487 53.4723C45.0014 53.4723 41.4852 49.9561 41.4852 45.6088C41.4852 41.2615 45.0014 37.7453 49.3487 37.7453C53.696 37.7453 57.2122 41.2615 57.2122 45.6088C57.2122 49.9561 53.696 53.4723 49.3487 53.4723Z" fill="#A63E2E"/>
</g>
<defs>
<clipPath id="clip0_11_73">
<rect width="78" height="78" fill="white"/>
</clipPath>
</defs>
</svg>
