<svg width="338" height="359" viewBox="0 0 338 359" fill="none" xmlns="http://www.w3.org/2000/svg">
<g clip-path="url(#clip0_13_93)">
<path d="M141.34 164.015C150.228 164.015 157.433 157.296 157.433 149.008C157.433 140.72 150.228 134.001 141.34 134.001C132.452 134.001 125.247 140.72 125.247 149.008C125.247 157.296 132.452 164.015 141.34 164.015Z" fill="#E4C5C0"/>
<path d="M243.58 224.924C252.468 224.924 259.674 218.205 259.674 209.917C259.674 201.629 252.468 194.911 243.58 194.911C234.692 194.911 227.487 201.629 227.487 209.917C227.487 218.205 234.692 224.924 243.58 224.924Z" fill="#E4C5C0"/>
<path d="M376.272 199.324L370.434 191.895C364.123 183.803 363.965 172.842 370.197 164.603L375.877 157.1C384.555 145.624 380.532 129.661 367.199 122.967L358.522 118.627C349.055 113.919 343.848 104.062 345.663 94.1312L347.319 85.0832C349.844 71.2536 338.721 58.4539 323.653 57.8654L313.792 57.4976C303.063 57.0563 293.754 50.2886 290.756 40.652L287.995 31.8247C283.814 18.2893 267.878 11.301 253.994 16.8917L244.921 20.4962C235.06 24.4685 223.542 22.1145 216.364 14.6113L209.816 7.77005C199.797 -2.67569 182.205 -2.60213 172.265 8.06429L165.796 14.9791C158.696 22.5559 147.257 25.057 137.317 21.2318L128.166 17.7008C114.202 12.3309 98.4244 19.6134 94.401 33.1488L91.7977 42.0497C88.9577 51.7598 79.8065 58.6746 69.0776 59.1895L59.2165 59.7045C44.1487 60.5136 33.262 73.4605 36.0231 87.29L37.8376 96.3381C39.8098 106.195 34.7609 116.126 25.3731 120.981L16.7742 125.468C3.59971 132.31 -0.186969 148.346 8.7275 159.675L14.5653 167.104C20.8764 175.196 21.0342 186.157 14.802 194.396L9.12194 201.899C0.444143 213.374 4.46749 229.337 17.7997 236.031L26.4775 240.372C35.9442 245.079 41.1509 254.937 39.3365 264.867L37.6798 273.916C35.1553 287.745 46.2787 300.545 61.3465 301.133L71.2076 301.501C81.9366 301.943 91.2455 308.71 94.2432 318.347L97.0044 327.174C101.185 340.709 117.121 347.698 131.006 342.107L140.078 338.503C149.939 334.53 161.457 336.884 168.636 344.387L175.183 351.229C185.281 361.674 202.874 361.601 212.735 350.934L219.204 344.02C226.304 336.443 237.742 333.942 247.683 337.767L256.834 341.298C270.797 346.668 286.575 339.385 290.598 325.85L293.201 316.949C296.041 307.239 305.193 300.324 315.922 299.809L325.783 299.294C340.851 298.485 351.737 285.538 348.976 271.709L347.162 262.661C345.189 252.803 350.238 242.873 359.626 238.018L368.225 233.53C381.399 226.763 385.186 210.726 376.272 199.324ZM102.448 149.008C102.448 128.999 119.803 112.816 141.261 112.816C162.719 112.816 180.075 128.999 180.075 149.008C180.075 169.017 162.719 185.2 141.261 185.2C119.803 185.2 102.448 168.943 102.448 149.008ZM148.756 242.358C145.442 246.109 139.447 246.624 135.423 243.535C131.4 240.445 130.848 234.854 134.161 231.103L236.007 116.715C239.32 112.963 245.316 112.448 249.339 115.538C253.363 118.627 253.915 124.218 250.601 127.97L148.756 242.358ZM243.58 246.109C222.122 246.109 204.767 229.926 204.767 209.917C204.767 189.908 222.122 173.725 243.58 173.725C265.038 173.725 282.394 189.908 282.394 209.917C282.394 229.926 265.038 246.109 243.58 246.109Z" fill="#E4C5C0"/>
</g>
<defs>
<clipPath id="clip0_13_93">
<rect width="385" height="359" fill="white"/>
</clipPath>
</defs>
</svg>
