<svg width="26" height="31" viewBox="0 0 26 31" fill="none" xmlns="http://www.w3.org/2000/svg">
<path d="M25.3182 22.9329L21.6822 18.7023C20.3836 17.1914 18.176 17.7958 17.6566 19.76C17.267 21.1199 15.9685 21.8753 14.7997 21.5731C12.2026 20.8176 8.69644 16.8892 8.04715 13.7162C7.65758 12.3563 8.43672 10.8453 9.60544 10.3921C11.2936 9.78773 11.813 7.21913 10.5144 5.70818L6.87843 1.47754C5.83957 0.419881 4.28128 0.419881 3.37228 1.47754L0.904987 4.34833C-1.56231 7.37022 1.1647 15.3782 7.26801 22.4797C13.3713 29.5811 20.2538 32.9052 22.8509 29.8833L25.3182 27.0125C26.2273 25.8037 26.2273 23.9906 25.3182 22.9329Z" fill="#45251C"/>
</svg>
