<svg width="72" height="77" viewBox="0 0 72 77" fill="none" xmlns="http://www.w3.org/2000/svg">
<path d="M36 0C34.8341 0 33.8906 1.00897 33.8906 2.25586V6.91797C33.8906 8.16486 34.8341 9.17383 36 9.17383C37.1659 9.17383 38.1094 8.16486 38.1094 6.91797V2.25586C38.1094 1.00897 37.1659 0 36 0Z" fill="#A63E2E"/>
<path d="M27.0496 9.94716L24.0668 6.75723C23.2429 5.87609 21.908 5.87609 21.084 6.75723C20.2601 7.63837 20.2601 9.06603 21.084 9.94716L24.0668 13.1371C24.8908 14.0182 26.2256 14.0182 27.0496 13.1371C27.8736 12.256 27.8736 10.8283 27.0496 9.94716Z" fill="#A63E2E"/>
<path d="M50.9159 6.75716C50.092 5.87602 48.7572 5.87587 47.9331 6.75716L44.9504 9.9471C44.1264 10.8282 44.1264 12.2559 44.9504 13.137C45.7743 14.0182 47.1092 14.0182 47.9331 13.137L50.9159 9.9471C51.7399 9.06596 51.7399 7.6383 50.9159 6.75716Z" fill="#A63E2E"/>
<path d="M39.7257 22.709L48.4878 38.3271L55.7899 22.709H39.7257Z" fill="#A63E2E"/>
<path d="M36 24.837L27.0686 40.7559H44.9314L36 24.837Z" fill="#A63E2E"/>
<path d="M26.2696 45.2676L36 76.6342L45.7304 45.2676H26.2696Z" fill="#A63E2E"/>
<path d="M12.5478 24.9641L5.16488 40.7559H19.9305L12.5478 24.9641Z" fill="#A63E2E"/>
<path d="M16.211 22.709L23.5122 38.3267L32.2743 22.709H16.211Z" fill="#A63E2E"/>
<path d="M59.4523 24.9648L52.0695 40.7559H66.8351L59.4523 24.9648Z" fill="#A63E2E"/>
<path d="M21.8243 45.2676H5.51138L31.3512 77H31.6679L21.8243 45.2676Z" fill="#A63E2E"/>
<path d="M50.1757 45.2676L40.3321 77H40.6488L66.4886 45.2676H50.1757Z" fill="#A63E2E"/>
</svg>
